<?xml version="1.0" encoding="UTF-8"?><svg id="Layer_1" xmlns="http://www.w3.org/2000/svg" width="500" height="500" viewBox="0 0 500 500"><defs><style>.cls-1{fill:#efb63b;}.cls-2{fill:#e57144;}.cls-3{fill:#8760d4;}.cls-4{fill:#df729f;}</style></defs><path d="m258.85-.44c-.25-.06-.5-.11-.75-.16h-16.2c-.75.08-1.5.16-2.25.24C109.45,5.11,4.99,110.02.22,240.39c-.07.3-.13.6-.19.89v16.2c.07.63.14,1.26.2,1.89,5.09,133.75,115.1,240.63,250.1,240.63s250.3-112.06,250.3-250.3S393.14,4.05,258.85-.44ZM83.95,83.32c21.61-21.62,46.78-38.59,74.79-50.44,26.91-11.37,55.37-17.54,84.71-18.37.01,7.71.1,14.85-.16,21.97-.03.9-2.08,2.35-3.31,2.47-37.61,3.78-64.65,24.55-85.31,54.38-14.95,21.59-35.38,28.81-60.21,26.57-14.2-1.28-21.45-4.37-31.56-12.48,6.43-8.45,13.44-16.5,21.05-24.1Zm136.2,147.66c-9.48-10.22-13.99-22.53-14.85-36.15-2.45-38.97-20.56-61.95-57.79-72.8-.32-.1-.59-.39-.14-.09,6.76-8.2,13.68-16.14,20.08-24.47,17.19-22.31,37.89-39.28,66.4-44.64,2.92-.55,5.94-.63,9.3-.97v187.96c-8.91-.32-16.79-2.14-23-8.84Zm22.91,24.63v51.73c-35.4-49.17-94.69-47.14-128.31-6.7v-45.03h128.31ZM33.51,158.11c5.84-13.78,12.91-26.87,21.16-39.19,9.3,4.7,18.23,9.22,27.11,13.71-15.33,11.42-24.39,31.42-43.91,40.13-3.91,1.75-7.81,3.5-11.71,5.25,2.15-6.72,4.59-13.36,7.35-19.9Zm-11.5,34.46c.49-.32,1.01-.57,1.47-.68,20.06-4.56,36.26-15.3,49.15-31.05,7.7-9.42,15.66-18.29,27.4-22.82,33.15-12.76,74.22-2.57,89.18,35.83,2.03,5.19,2.51,11.19,2.76,16.86.88,19.53,6.3,37.09,20.62,51.14.2.2.19.62.39,1.32-66.08,0-131.79,0-197.86.01.47-17.21,2.77-34.13,6.89-50.61Zm79.4,189.39c-.1,14.22-2.94,28.11-8.92,42.25-2.9-2.63-5.75-5.34-8.54-8.13-21.62-21.61-38.59-46.78-50.44-74.8-11.51-27.23-17.7-56.06-18.41-85.79,29.15,0,57.36,0,85.86-.01.18.78.53,1.6.53,2.42.03,41.36.23,82.71-.08,124.06Zm142.09,99.82c-.01.88-.14,1.76-.29,3.1-29.26-.86-57.64-7.02-84.47-18.36-19.82-8.39-38.2-19.34-54.92-32.68,3.08-11.2,7.2-21.73,8.36-32.58,1.89-17.62,2.76-35.52,2.06-53.23-1.19-29.88,15.61-51.15,41.45-60.94,19.87-7.53,38.99-4.58,56.26,7.91,20.71,14.99,31.8,34.97,31.64,61.03-.27,41.92-.08,83.84-.09,125.75Zm236.6-283.05c3.2,14.49,5.02,29.3,5.43,44.33h-125.63v-51.79c14.7,22.19,34.63,31.96,59.08,32.46,23.74.48,44.81-6.43,61.12-25ZM256.49,14.48c29.6.75,58.3,6.93,85.42,18.4,28.02,11.85,53.19,28.82,74.8,50.44,21.62,21.61,38.58,46.78,50.44,74.79,3.23,7.65,6.03,15.42,8.42,23.3-.34,2.05-1.37,3.93-2.95,5.99-20.37,26.55-58.27,28.6-80.25,16.81-19.23-10.31-29.81-27.54-32.75-49.25-1.51-11.2-2.38-22.53-4.39-33.64-1.11-6.09-3.14-12.37-6.22-17.7-19.83-34.33-47.23-58.6-88.09-64.06-3.5-.48-4.58-1.59-4.48-4.97.17-6.3.07-12.61.05-20.11Zm.28,37.68c3.46.49,6.77.74,9.97,1.48,19.58,4.49,36.8,13.24,50.02,28.77,6.04,7.11,12.38,14.04,17.64,21.71,7.96,11.63,10.24,25.17,10.61,39,.89,33.2,1.61,66.41,2.41,100.02h-90.65V52.16Zm22.74,203.54c-7.39,6.82-14.89,13.75-22.47,20.76v-20.76h22.47Zm-5.68,22.68c26.21-27.41,73.05-26.08,97.95,2.66,8.18,9.46,10.57,20.85,10.58,33.39h-125.54c1.56-14.26,7.5-26.09,17.01-36.05Zm68.08,188.14c-26.99,11.41-55.57,17.59-85.02,18.38v-118.32c2.82,2.52,5.46,4.87,8.11,7.22,18.98,16.92,40.91,26.36,66.61,26.2,23.93-.16,46.87,9.08,66.59,32.74-17.08,13.84-35.93,25.16-56.29,33.78Zm74.8-50.44c-2.61,2.61-5.28,5.16-7.99,7.63-4.71-4.45-9.3-9.05-14.19-13.3-17.97-15.63-38.87-23.35-62.73-23.4-26.2-.05-47.74-10.45-64.69-30.3-6.92-8.11-9.82-17.8-10.08-29.09h137.93c1.02-14.42.82-28.28-4.83-41.57-5.72-13.45-16.26-22.39-29.06-30.44h124.49c-.73,29.68-6.91,58.48-18.41,85.67-11.86,28.02-28.82,53.19-50.44,74.8Z"/><path class="cls-4" d="m101.41,381.96c-.1,14.22-2.94,28.11-8.92,42.25-2.9-2.63-5.75-5.34-8.54-8.13-21.62-21.61-38.59-46.78-50.44-74.8-11.51-27.23-17.7-56.06-18.41-85.79,29.15,0,57.36,0,85.86-.01.18.78.53,1.6.53,2.42.03,41.36.23,82.71-.08,124.06Z"/><path class="cls-3" d="m243.06,255.61v51.73c-35.4-49.17-94.69-47.14-128.31-6.7v-45.03h128.31Z"/><path class="cls-1" d="m243.5,481.78c-.01.88-.14,1.76-.29,3.1-29.26-.86-57.64-7.02-84.47-18.36-19.82-8.39-38.2-19.34-54.92-32.68,3.08-11.2,7.2-21.73,8.36-32.58,1.89-17.62,2.76-35.52,2.06-53.23-1.19-29.88,15.61-51.15,41.45-60.94,19.87-7.53,38.99-4.58,56.26,7.91,20.71,14.99,31.8,34.97,31.64,61.03-.27,41.92-.08,83.84-.09,125.75Z"/><path class="cls-2" d="m398.2,432.74c-17.08,13.84-35.93,25.16-56.29,33.78-26.99,11.41-55.57,17.59-85.02,18.38v-118.32c2.82,2.52,5.46,4.87,8.11,7.22,18.98,16.92,40.91,26.36,66.61,26.2,23.93-.16,46.87,9.08,66.59,32.74Z"/><path class="cls-3" d="m485.56,255.61c-.73,29.68-6.91,58.48-18.41,85.67-11.86,28.02-28.82,53.19-50.44,74.8-2.61,2.61-5.28,5.16-7.99,7.63-4.71-4.45-9.3-9.05-14.19-13.3-17.97-15.63-38.87-23.35-62.73-23.4-26.2-.05-47.74-10.45-64.69-30.3-6.92-8.11-9.82-17.8-10.08-29.09h137.93c1.02-14.42.82-28.28-4.83-41.57-5.72-13.45-16.26-22.39-29.06-30.44h124.49Z"/><path class="cls-3" d="m279.51,255.7c-7.39,6.82-14.89,13.75-22.47,20.76v-20.76h22.47Z"/><path class="cls-4" d="m382.36,314.43h-125.54c1.56-14.26,7.5-26.09,17.01-36.05,26.21-27.41,73.05-26.08,97.95,2.66,8.18,9.46,10.57,20.85,10.58,33.39Z"/><path class="cls-2" d="m485.53,243.06h-125.63v-51.79c14.7,22.19,34.63,31.96,59.08,32.46,23.74.48,44.81-6.43,61.12-25,3.2,14.49,5.02,29.3,5.43,44.33Z"/><path class="cls-4" d="m347.42,243.14h-90.65V52.16c3.46.49,6.77.74,9.97,1.48,19.58,4.49,36.8,13.24,50.02,28.77,6.04,7.11,12.38,14.04,17.64,21.71,7.96,11.63,10.24,25.17,10.61,39,.89,33.2,1.61,66.41,2.41,100.02Z"/><path class="cls-3" d="m475.57,181.41c-.34,2.05-1.37,3.93-2.95,5.99-20.37,26.55-58.27,28.6-80.25,16.81-19.23-10.31-29.81-27.54-32.75-49.25-1.51-11.2-2.38-22.53-4.39-33.64-1.11-6.09-3.14-12.37-6.22-17.7-19.83-34.33-47.23-58.6-88.09-64.06-3.5-.48-4.58-1.59-4.48-4.97.17-6.3.07-12.61.05-20.11,29.6.75,58.3,6.93,85.42,18.4,28.02,11.85,53.19,28.82,74.8,50.44,21.62,21.61,38.58,46.78,50.44,74.79,3.23,7.65,6.03,15.42,8.42,23.3Z"/><path class="cls-1" d="m212.98,243.17c-66.08,0-131.79,0-197.86.01.47-17.21,2.77-34.13,6.89-50.61.49-.32,1.01-.57,1.47-.68,20.06-4.56,36.26-15.3,49.15-31.05,7.7-9.42,15.66-18.29,27.4-22.82,33.15-12.76,74.22-2.57,89.18,35.83,2.03,5.19,2.51,11.19,2.76,16.86.88,19.53,6.3,37.09,20.62,51.14.2.2.19.62.39,1.32Z"/><path class="cls-4" d="m81.78,132.63c-15.33,11.42-24.39,31.42-43.91,40.13-3.91,1.75-7.81,3.5-11.71,5.25,2.15-6.72,4.59-13.36,7.35-19.9,5.84-13.78,12.91-26.87,21.16-39.19,9.3,4.7,18.23,9.22,27.11,13.71Z"/><path class="cls-2" d="m243.15,51.86v187.96c-8.91-.32-16.79-2.14-23-8.84-9.48-10.22-13.99-22.53-14.85-36.15-2.45-38.97-20.56-61.95-57.79-72.8-.32-.1-.59-.39-.14-.09,6.76-8.2,13.68-16.14,20.08-24.47,17.19-22.31,37.89-39.28,66.4-44.64,2.92-.55,5.94-.63,9.3-.97Z"/><path class="cls-3" d="m243.29,36.48c-.03.9-2.08,2.35-3.31,2.47-37.61,3.78-64.65,24.55-85.31,54.38-14.95,21.59-35.38,28.81-60.21,26.57-14.2-1.28-21.45-4.37-31.56-12.48,6.43-8.45,13.44-16.5,21.05-24.1,21.61-21.62,46.78-38.59,74.79-50.44,26.91-11.37,55.37-17.54,84.71-18.37.01,7.71.1,14.85-.16,21.97Z"/></svg>
