<svg width="56" height="57" viewBox="0 0 56 57" fill="none" xmlns="http://www.w3.org/2000/svg">
<path d="M27.6564 56.0575C42.9306 56.0575 55.3128 43.6657 55.3128 28.3796C55.3128 13.0935 42.9306 0.70166 27.6564 0.70166C12.3822 0.70166 0 13.0935 0 28.3796C0 43.6657 12.3822 56.0575 27.6564 56.0575Z" fill="#0037FF"/>
<path d="M21.7891 30.2733C21.561 30.2733 21.3394 30.1532 21.2199 29.9395C21.0439 29.6253 21.1563 29.2274 21.4703 29.0519C22.0042 28.7529 22.517 28.4023 22.9944 28.0109C24.0807 27.1194 24.9601 26.0426 25.6076 24.8092C25.7749 24.4901 26.1692 24.3678 26.488 24.5352C26.8069 24.7026 26.9291 25.0972 26.7618 25.4163C26.0323 26.8052 25.0432 28.0174 23.8211 29.0198C23.2845 29.4601 22.7082 29.8537 22.1074 30.1901C22.0069 30.2467 21.8972 30.2733 21.7897 30.2733H21.7891Z" fill="#FFFDEA"/>
<path d="M34.1158 27.2482C34.0723 27.2482 34.0278 27.2439 33.9838 27.2347C33.3091 27.0955 32.6405 26.8949 31.9963 26.6378C30.5287 26.0523 29.2191 25.1962 28.1045 24.0933C27.8487 23.84 27.846 23.4268 28.0991 23.1708C28.3522 22.9148 28.765 22.912 29.0209 23.1654C30.011 24.1449 31.1745 24.9054 32.4792 25.4261C33.0522 25.655 33.647 25.8333 34.2467 25.9572C34.5992 26.0301 34.8262 26.3747 34.7534 26.7275C34.6899 27.0357 34.4183 27.2482 34.1158 27.2482Z" fill="#FFFDEA"/>
<path d="M11.0827 35.9901C10.5651 35.9901 10.0469 35.9553 9.53035 35.8858C9.17349 35.8379 8.92309 35.5096 8.97143 35.1525C9.01977 34.7953 9.34784 34.5447 9.70416 34.5931C10.9931 34.7665 12.2934 34.6958 13.5682 34.3827C14.9321 34.0479 16.1901 33.4554 17.3058 32.6226C17.5942 32.4073 18.0026 32.4666 18.2177 32.7558C18.4328 33.045 18.3736 33.4532 18.0847 33.6685C16.8283 34.6061 15.4128 35.2731 13.8784 35.6498C12.955 35.8765 12.0191 35.9907 11.0822 35.9907L11.0827 35.9901Z" fill="#FFFDEA"/>
<path d="M43.4098 29.4363C41.8298 29.4363 40.2964 29.1264 38.8527 28.5154C38.5213 28.3752 38.366 27.9925 38.5061 27.6604C38.6463 27.3288 39.0287 27.1733 39.3605 27.3136C40.6424 27.8561 42.0052 28.1317 43.4098 28.1317C44.7227 28.1317 46.0024 27.8903 47.2125 27.4141C47.5477 27.282 47.9257 27.4473 48.0577 27.7827C48.1891 28.1181 48.0246 28.4964 47.6894 28.6285C46.3266 29.1645 44.8867 29.4363 43.4098 29.4363Z" fill="#FFFDEA"/>
<path d="M36.5437 40.4751C36.4378 40.4751 36.3302 40.4718 36.2216 40.4642C35.5106 40.4163 34.925 40.2174 34.7626 40.1576C34.2771 39.9788 33.8213 39.7265 33.4074 39.4085C31.3315 37.8131 30.7801 34.919 32.1256 32.6762L32.1462 32.6436L32.6133 31.9597L33.0772 31.2525L33.7219 30.3094C35.271 27.923 36.0901 25.1513 36.0901 22.292C36.0901 19.2267 35.1586 16.2886 33.3966 13.7946C33.1885 13.5005 33.2586 13.0934 33.5525 12.8852C33.8463 12.677 34.2532 12.7471 34.4612 13.0412C36.3796 15.7564 37.3937 18.9549 37.3937 22.292C37.3937 25.4068 36.5008 28.4275 34.811 31.0269L34.8028 31.0394L34.1576 31.9837L33.6937 32.6914L33.2342 33.3633C32.2424 35.0354 32.6562 37.1863 34.2016 38.3735C34.5112 38.6116 34.8517 38.7997 35.214 38.9334C35.3004 38.965 35.7583 39.1259 36.3096 39.1628C37.4122 39.2373 38.3818 38.7742 38.8614 38.4915C39.1715 38.3089 39.5713 38.4127 39.7538 38.7231C39.9363 39.0335 39.8326 39.4335 39.5224 39.6162C38.9586 39.9478 37.856 40.4756 36.5442 40.4756L36.5437 40.4751Z" fill="#FFFDEA"/>
<path d="M22.6907 45.9875C19.8722 45.9875 18.1537 43.8686 17.8354 43.4403C17.6203 43.1511 17.6806 42.7429 17.9695 42.5276C18.2585 42.3123 18.6664 42.3727 18.8815 42.6619C19.0379 42.8722 20.4735 44.7177 22.7543 44.6824C24.2827 44.6601 25.3832 43.817 25.5885 43.6479C25.941 43.3577 26.2485 43.0147 26.5016 42.6287C27.816 40.6245 27.3478 37.9337 25.4364 36.4959L25.2403 36.3638L23.9677 35.4946C19.6322 32.4951 17.044 27.5599 17.044 22.292C17.044 18.9554 18.0581 15.7564 19.9765 13.0417C20.1846 12.7476 20.5914 12.678 20.8852 12.8857C21.1791 13.0939 21.2492 13.501 21.0411 13.7951C19.2791 16.2886 18.3481 19.2272 18.3481 22.2925C18.3481 27.1304 20.725 31.6634 24.7064 34.4194L24.9079 34.5553L26.205 35.4419C28.678 37.2896 29.2869 40.7609 27.5917 43.3446C27.2664 43.8404 26.8709 44.2817 26.4174 44.6552C26.0464 44.9607 24.688 45.9587 22.7744 45.9865C22.7467 45.9865 22.719 45.987 22.6918 45.987L22.6907 45.9875Z" fill="#FFFDEA"/>
</svg>
